{
	"asset":{
		"generator":"Khronos glTF Blender I/O v5.1.20",
		"version":"2.0"
	},
	"scene":0,
	"scenes":[
		{
			"name":"Scene",
			"nodes":[
				0,
				1,
				2,
				3,
				4,
				5,
				6,
				7,
				8,
				9,
				10,
				11,
				12,
				13,
				14,
				15,
				16,
				17,
				18,
				19,
				20,
				21,
				22,
				23,
				24,
				25,
				26,
				27,
				28,
				29,
				30,
				31,
				32,
				33,
				34,
				35,
				36,
				37,
				38,
				39,
				40,
				41,
				42,
				43,
				44
			]
		}
	],
	"nodes":[
		{
			"mesh":0,
			"name":"humano",
			"rotation":[
				0,
				-0.9357219934463501,
				0,
				0.3527383804321289
			],
			"scale":[
				0.5908541679382324,
				0.5908541679382324,
				0.5908541679382324
			],
			"translation":[
				21.02977752685547,
				0,
				4.216126441955566
			]
		},
		{
			"mesh":1,
			"name":"se\u00f1uelo a cola",
			"scale":[
				1,
				1,
				4
			],
			"translation":[
				-0.3829641342163086,
				-0.020346641540527344,
				1.999279260635376
			]
		},
		{
			"mesh":2,
			"name":"dientes a cola",
			"scale":[
				1,
				1,
				3
			],
			"translation":[
				-0.3829641342163086,
				-0.6511955261230469,
				1.0179587602615356
			]
		},
		{
			"mesh":3,
			"name":"Cube",
			"scale":[
				0.20000000298023224,
				1,
				0.20000000298023224
			],
			"translation":[
				-0.023962855339050293,
				1.007574200630188,
				4.342463493347168
			]
		},
		{
			"mesh":4,
			"name":"aletas arriba"
		},
		{
			"mesh":5,
			"name":"low poly"
		},
		{
			"name":"referencia"
		},
		{
			"name":"organico.001"
		},
		{
			"mesh":6,
			"name":"aleta derecha"
		},
		{
			"mesh":7,
			"name":"organico.004"
		},
		{
			"mesh":8,
			"name":"organico.003"
		},
		{
			"mesh":9,
			"name":"aletas izquierda"
		},
		{
			"mesh":10,
			"name":"aletas traseras"
		},
		{
			"mesh":11,
			"name":"Circle.003"
		},
		{
			"mesh":12,
			"name":"Circle.004"
		},
		{
			"mesh":13,
			"name":"cuerpo copia"
		},
		{
			"mesh":14,
			"name":"Fish.003"
		},
		{
			"mesh":15,
			"name":"Cylinder"
		},
		{
			"mesh":16,
			"name":"original"
		},
		{
			"mesh":17,
			"name":"cuerpo"
		},
		{
			"mesh":18,
			"name":"dientes abajo.002"
		},
		{
			"mesh":19,
			"name":"curva"
		},
		{
			"mesh":20,
			"name":"luz"
		},
		{
			"mesh":21,
			"name":"dientes abajo.001"
		},
		{
			"mesh":22,
			"name":"Fish.001"
		},
		{
			"mesh":23,
			"name":"Fish.002"
		},
		{
			"mesh":24,
			"name":"luz.001"
		},
		{
			"mesh":25,
			"name":"dientes arriba"
		},
		{
			"mesh":26,
			"name":"Fish.005"
		},
		{
			"mesh":27,
			"name":"aleta compleja"
		},
		{
			"mesh":28,
			"name":"aleta simple"
		},
		{
			"mesh":29,
			"name":"aletas simples"
		},
		{
			"mesh":30,
			"name":"Fish.004"
		},
		{
			"mesh":31,
			"name":"dientes arriba.001"
		},
		{
			"mesh":32,
			"name":"Cylinder.001"
		},
		{
			"mesh":33,
			"name":"luz.002"
		},
		{
			"mesh":34,
			"name":"dientes arriba.002"
		},
		{
			"mesh":35,
			"name":"aleta simple.001"
		},
		{
			"mesh":36,
			"name":"dientes arriba.003"
		},
		{
			"mesh":37,
			"name":"se\u00f1uelo"
		},
		{
			"mesh":38,
			"name":"aleta simple.002"
		},
		{
			"mesh":39,
			"name":"aleta simple.003"
		},
		{
			"mesh":40,
			"name":"aleta simple.004",
			"scale":[
				0.6832855939865112,
				1,
				0.575764536857605
			],
			"translation":[
				26.831209182739258,
				-0.01546257734298706,
				2.1145429611206055
			]
		},
		{
			"mesh":41,
			"name":"humano.001",
			"rotation":[
				0,
				-0.9357219934463501,
				0,
				0.3527383804321289
			],
			"scale":[
				0.5908541679382324,
				0.5908541679382324,
				0.5908541679382324
			],
			"translation":[
				27.287797927856445,
				0,
				4.216126441955566
			]
		},
		{
			"mesh":42,
			"name":"Plane",
			"rotation":[
				0.5,
				0.5,
				-0.4999999403953552,
				0.5000000596046448
			],
			"scale":[
				0.0842093974351883,
				0.0842093974351883,
				0.0842093974351883
			],
			"translation":[
				26.821517944335938,
				2.2387709617614746,
				0.9159903526306152
			]
		}
	],
	"materials":[
		{
			"doubleSided":true,
			"name":"Default OBJ.001",
			"pbrMetallicRoughness":{
				"baseColorFactor":[
					0.800000011920929,
					0.800000011920929,
					0.800000011920929,
					1
				],
				"metallicFactor":0,
				"roughnessFactor":0.5
			}
		}
	],
	"meshes":[
		{
			"name":"Realistic_White_Male_Low_Poly",
			"primitives":[
				{
					"attributes":{
						"POSITION":0,
						"NORMAL":1
					},
					"indices":2,
					"material":0
				}
			]
		},
		{
			"name":"Plane",
			"primitives":[
				{
					"attributes":{
						"POSITION":3,
						"NORMAL":4,
						"TEXCOORD_0":5
					},
					"indices":6
				}
			]
		},
		{
			"name":"Plane.001",
			"primitives":[
				{
					"attributes":{
						"POSITION":7,
						"NORMAL":8,
						"TEXCOORD_0":9
					},
					"indices":6
				}
			]
		},
		{
			"name":"Cube",
			"primitives":[
				{
					"attributes":{
						"POSITION":10,
						"NORMAL":11,
						"TEXCOORD_0":12
					},
					"indices":13
				}
			]
		},
		{
			"name":"LowPoly",
			"primitives":[
				{
					"attributes":{
						"POSITION":14,
						"NORMAL":15,
						"TEXCOORD_0":16
					},
					"indices":17
				}
			]
		},
		{
			"name":"LowPoly.001",
			"primitives":[
				{
					"attributes":{
						"POSITION":18,
						"NORMAL":19,
						"TEXCOORD_0":20
					},
					"indices":21
				}
			]
		},
		{
			"name":"Cube.001",
			"primitives":[
				{
					"attributes":{
						"POSITION":22,
						"NORMAL":23,
						"TEXCOORD_0":24
					},
					"indices":25
				}
			]
		},
		{
			"name":"LowPoly.006",
			"primitives":[
				{
					"attributes":{
						"POSITION":26,
						"NORMAL":27,
						"TEXCOORD_0":28
					},
					"indices":29
				}
			]
		},
		{
			"name":"LowPoly.007",
			"primitives":[
				{
					"attributes":{
						"POSITION":30,
						"NORMAL":31,
						"TEXCOORD_0":32
					},
					"indices":33
				}
			]
		},
		{
			"name":"LowPoly.009",
			"primitives":[
				{
					"attributes":{
						"POSITION":34,
						"NORMAL":35,
						"TEXCOORD_0":36
					},
					"indices":37
				}
			]
		},
		{
			"name":"LowPoly.010",
			"primitives":[
				{
					"attributes":{
						"POSITION":38,
						"NORMAL":39,
						"TEXCOORD_0":40
					},
					"indices":41
				}
			]
		},
		{
			"name":"Circle.003",
			"primitives":[
				{
					"attributes":{
						"POSITION":42,
						"NORMAL":43,
						"TEXCOORD_0":44
					},
					"indices":45
				}
			]
		},
		{
			"name":"Circle.004",
			"primitives":[
				{
					"attributes":{
						"POSITION":46,
						"NORMAL":47,
						"TEXCOORD_0":48
					},
					"indices":49
				}
			]
		},
		{
			"name":"LowPoly.011",
			"primitives":[
				{
					"attributes":{
						"POSITION":50,
						"NORMAL":51,
						"TEXCOORD_0":52
					},
					"indices":53
				}
			]
		},
		{
			"name":"Plane.006",
			"primitives":[
				{
					"attributes":{
						"POSITION":54,
						"NORMAL":55,
						"TEXCOORD_0":56,
						"COLOR_0":57
					},
					"indices":58
				}
			]
		},
		{
			"name":"Cylinder",
			"primitives":[
				{
					"attributes":{
						"POSITION":59,
						"NORMAL":60,
						"TEXCOORD_0":61
					},
					"indices":62
				}
			]
		},
		{
			"name":"LowPoly.002",
			"primitives":[
				{
					"attributes":{
						"POSITION":63,
						"NORMAL":64,
						"TEXCOORD_0":65
					},
					"indices":21
				}
			]
		},
		{
			"name":"LowPoly.004",
			"primitives":[
				{
					"attributes":{
						"POSITION":66,
						"NORMAL":67,
						"TEXCOORD_0":68,
						"COLOR_0":69
					},
					"indices":70
				}
			]
		},
		{
			"name":"LowPoly.005",
			"primitives":[
				{
					"attributes":{
						"POSITION":71,
						"NORMAL":72,
						"TEXCOORD_0":73
					},
					"indices":74
				}
			]
		},
		{
			"name":"B\u00e9zierCurve",
			"primitives":[
				{
					"attributes":{
						"POSITION":75,
						"NORMAL":76,
						"TEXCOORD_0":77
					},
					"indices":78
				}
			]
		},
		{
			"name":"Cube.002",
			"primitives":[
				{
					"attributes":{
						"POSITION":79,
						"NORMAL":80,
						"TEXCOORD_0":81
					},
					"indices":82
				}
			]
		},
		{
			"name":"LowPoly.008",
			"primitives":[
				{
					"attributes":{
						"POSITION":83,
						"NORMAL":84,
						"TEXCOORD_0":85
					},
					"indices":86
				}
			]
		},
		{
			"name":"Plane.004",
			"primitives":[
				{
					"attributes":{
						"POSITION":87,
						"NORMAL":88,
						"TEXCOORD_0":89,
						"COLOR_0":90
					},
					"indices":91
				}
			]
		},
		{
			"name":"Plane.005",
			"primitives":[
				{
					"attributes":{
						"POSITION":92,
						"NORMAL":93,
						"TEXCOORD_0":94,
						"COLOR_0":95
					},
					"indices":96
				}
			]
		},
		{
			"name":"Cube.003",
			"primitives":[
				{
					"attributes":{
						"POSITION":97,
						"NORMAL":98,
						"TEXCOORD_0":99
					},
					"indices":82
				}
			]
		},
		{
			"name":"LowPoly.014",
			"primitives":[
				{
					"attributes":{
						"POSITION":100,
						"NORMAL":101,
						"TEXCOORD_0":102
					},
					"indices":103
				}
			]
		},
		{
			"name":"Plane.002",
			"primitives":[
				{
					"attributes":{
						"POSITION":104,
						"NORMAL":105,
						"TEXCOORD_0":106,
						"COLOR_0":107
					},
					"indices":108
				}
			]
		},
		{
			"name":"LowPoly.015",
			"primitives":[
				{
					"attributes":{
						"POSITION":109,
						"NORMAL":110,
						"TEXCOORD_0":111,
						"COLOR_0":112
					},
					"indices":113
				}
			]
		},
		{
			"name":"LowPoly.016",
			"primitives":[
				{
					"attributes":{
						"POSITION":114,
						"NORMAL":115,
						"TEXCOORD_0":116,
						"COLOR_0":117
					},
					"indices":118
				}
			]
		},
		{
			"name":"LowPoly.017",
			"primitives":[
				{
					"attributes":{
						"POSITION":119,
						"NORMAL":120,
						"TEXCOORD_0":121,
						"COLOR_0":122
					},
					"indices":123
				}
			]
		},
		{
			"name":"Plane.003",
			"primitives":[
				{
					"attributes":{
						"POSITION":124,
						"NORMAL":125,
						"TEXCOORD_0":126,
						"COLOR_0":127
					},
					"indices":128
				}
			]
		},
		{
			"name":"LowPoly.018",
			"primitives":[
				{
					"attributes":{
						"POSITION":129,
						"NORMAL":130,
						"TEXCOORD_0":131
					},
					"indices":132
				}
			]
		},
		{
			"name":"Cylinder.001",
			"primitives":[
				{
					"attributes":{
						"POSITION":133,
						"NORMAL":134,
						"TEXCOORD_0":135
					},
					"indices":62
				}
			]
		},
		{
			"name":"Cube.004",
			"primitives":[
				{
					"attributes":{
						"POSITION":136,
						"NORMAL":137,
						"TEXCOORD_0":138
					},
					"indices":82
				}
			]
		},
		{
			"name":"LowPoly.019",
			"primitives":[
				{
					"attributes":{
						"POSITION":139,
						"NORMAL":140,
						"TEXCOORD_0":141
					},
					"indices":103
				}
			]
		},
		{
			"name":"LowPoly.020",
			"primitives":[
				{
					"attributes":{
						"POSITION":142,
						"NORMAL":143,
						"TEXCOORD_0":144,
						"COLOR_0":145
					},
					"indices":146
				}
			]
		},
		{
			"name":"LowPoly.022",
			"primitives":[
				{
					"attributes":{
						"POSITION":147,
						"NORMAL":148,
						"TEXCOORD_0":149
					},
					"indices":132
				}
			]
		},
		{
			"name":"Cube.005",
			"primitives":[
				{
					"attributes":{
						"POSITION":150,
						"NORMAL":151,
						"TEXCOORD_0":152
					},
					"indices":153
				}
			]
		},
		{
			"name":"LowPoly.013",
			"primitives":[
				{
					"attributes":{
						"POSITION":154,
						"NORMAL":155,
						"TEXCOORD_0":156,
						"COLOR_0":157
					},
					"indices":158
				}
			]
		},
		{
			"name":"LowPoly.028",
			"primitives":[
				{
					"attributes":{
						"POSITION":159,
						"NORMAL":160,
						"TEXCOORD_0":161,
						"COLOR_0":162
					},
					"indices":163
				}
			]
		},
		{
			"name":"LowPoly.012",
			"primitives":[
				{
					"attributes":{
						"POSITION":164,
						"NORMAL":165,
						"TEXCOORD_0":166,
						"COLOR_0":167
					},
					"indices":168
				}
			]
		},
		{
			"name":"Realistic_White_Male_Low_Poly.001",
			"primitives":[
				{
					"attributes":{
						"POSITION":169,
						"NORMAL":170
					},
					"indices":2,
					"material":0
				}
			]
		},
		{
			"name":"Plane.007",
			"primitives":[
				{
					"attributes":{
						"POSITION":171,
						"NORMAL":172,
						"TEXCOORD_0":173
					},
					"indices":174
				}
			]
		}
	],
	"accessors":[
		{
			"bufferView":0,
			"componentType":5126,
			"count":4944,
			"max":[
				0.7122749090194702,
				3.0502984523773193,
				0.28161388635635376
			],
			"min":[
				-0.7122012972831726,
				-0.0005541160353459418,
				-0.275922954082489
			],
			"type":"VEC3"
		},
		{
			"bufferView":1,
			"componentType":5126,
			"count":4944,
			"type":"VEC3"
		},
		{
			"bufferView":2,
			"componentType":5123,
			"count":29652,
			"type":"SCALAR"
		},
		{
			"bufferView":3,
			"componentType":5126,
			"count":4,
			"max":[
				1,
				0,
				1
			],
			"min":[
				-1,
				0,
				-1
			],
			"type":"VEC3"
		},
		{
			"bufferView":4,
			"componentType":5126,
			"count":4,
			"type":"VEC3"
		},
		{
			"bufferView":5,
			"componentType":5126,
			"count":4,
			"type":"VEC2"
		},
		{
			"bufferView":6,
			"componentType":5123,
			"count":6,
			"type":"SCALAR"
		},
		{
			"bufferView":7,
			"componentType":5126,
			"count":4,
			"max":[
				1,
				0,
				1
			],
			"min":[
				-1,
				0,
				-1
			],
			"type":"VEC3"
		},
		{
			"bufferView":8,
			"componentType":5126,
			"count":4,
			"type":"VEC3"
		},
		{
			"bufferView":9,
			"componentType":5126,
			"count":4,
			"type":"VEC2"
		},
		{
			"bufferView":10,
			"componentType":5126,
			"count":24,
			"max":[
				1,
				1,
				1
			],
			"min":[
				-1,
				-1,
				-1
			],
			"type":"VEC3"
		},
		{
			"bufferView":11,
			"componentType":5126,
			"count":24,
			"type":"VEC3"
		},
		{
			"bufferView":12,
			"componentType":5126,
			"count":24,
			"type":"VEC2"
		},
		{
			"bufferView":13,
			"componentType":5123,
			"count":36,
			"type":"SCALAR"
		},
		{
			"bufferView":14,
			"componentType":5126,
			"count":21,
			"max":[
				1.974025011062622,
				0.9591893553733826,
				-1.4521106481552124
			],
			"min":[
				-0.15453848242759705,
				-3.8328771591186523,
				-5.5961809158325195
			],
			"type":"VEC3"
		},
		{
			"bufferView":15,
			"componentType":5126,
			"count":21,
			"type":"VEC3"
		},
		{
			"bufferView":16,
			"componentType":5126,
			"count":21,
			"type":"VEC2"
		},
		{
			"bufferView":17,
			"componentType":5123,
			"count":21,
			"type":"SCALAR"
		},
		{
			"bufferView":18,
			"componentType":5126,
			"count":281,
			"max":[
				3.1601719856262207,
				7.743091106414795,
				-0.08668699860572815
			],
			"min":[
				-3.404568910598755,
				-6.907290935516357,
				-5.597081184387207
			],
			"type":"VEC3"
		},
		{
			"bufferView":19,
			"componentType":5126,
			"count":281,
			"type":"VEC3"
		},
		{
			"bufferView":20,
			"componentType":5126,
			"count":281,
			"type":"VEC2"
		},
		{
			"bufferView":21,
			"componentType":5123,
			"count":303,
			"type":"SCALAR"
		},
		{
			"bufferView":22,
			"componentType":5126,
			"count":116,
			"max":[
				2.6044387817382812,
				5.248197555541992,
				2.0237722396850586
			],
			"min":[
				-4.1617960929870605,
				-1.0000001192092896,
				-4.1981730461120605
			],
			"type":"VEC3"
		},
		{
			"bufferView":23,
			"componentType":5126,
			"count":116,
			"type":"VEC3"
		},
		{
			"bufferView":24,
			"componentType":5126,
			"count":116,
			"type":"VEC2"
		},
		{
			"bufferView":25,
			"componentType":5123,
			"count":180,
			"type":"SCALAR"
		},
		{
			"bufferView":26,
			"componentType":5126,
			"count":14,
			"max":[
				-0.15453848242759705,
				7.742370128631592,
				-2.6781108379364014
			],
			"min":[
				-0.6956257224082947,
				0.9591893553733826,
				-5.147820472717285
			],
			"type":"VEC3"
		},
		{
			"bufferView":27,
			"componentType":5126,
			"count":14,
			"type":"VEC3"
		},
		{
			"bufferView":28,
			"componentType":5126,
			"count":14,
			"type":"VEC2"
		},
		{
			"bufferView":29,
			"componentType":5123,
			"count":24,
			"type":"SCALAR"
		},
		{
			"bufferView":30,
			"componentType":5126,
			"count":30,
			"max":[
				1.4898371696472168,
				3.166963815689087,
				-1.0224568843841553
			],
			"min":[
				-1.4872348308563232,
				1.9857971668243408,
				-2.5666630268096924
			],
			"type":"VEC3"
		},
		{
			"bufferView":31,
			"componentType":5126,
			"count":30,
			"type":"VEC3"
		},
		{
			"bufferView":32,
			"componentType":5126,
			"count":30,
			"type":"VEC2"
		},
		{
			"bufferView":33,
			"componentType":5123,
			"count":30,
			"type":"SCALAR"
		},
		{
			"bufferView":34,
			"componentType":5126,
			"count":7,
			"max":[
				-1.3156373500823975,
				0.6098594069480896,
				-0.11857279390096664
			],
			"min":[
				-3.2551674842834473,
				-1.267874836921692,
				-1.8385426998138428
			],
			"type":"VEC3"
		},
		{
			"bufferView":35,
			"componentType":5126,
			"count":7,
			"type":"VEC3"
		},
		{
			"bufferView":36,
			"componentType":5126,
			"count":7,
			"type":"VEC2"
		},
		{
			"bufferView":37,
			"componentType":5123,
			"count":9,
			"type":"SCALAR"
		},
		{
			"bufferView":38,
			"componentType":5126,
			"count":15,
			"max":[
				2.2028398513793945,
				-2.8235743045806885,
				-0.31355249881744385
			],
			"min":[
				1.2637766599655151,
				-6.91571569442749,
				-3.2483105659484863
			],
			"type":"VEC3"
		},
		{
			"bufferView":39,
			"componentType":5126,
			"count":15,
			"type":"VEC3"
		},
		{
			"bufferView":40,
			"componentType":5126,
			"count":15,
			"type":"VEC2"
		},
		{
			"bufferView":41,
			"componentType":5123,
			"count":15,
			"type":"SCALAR"
		},
		{
			"bufferView":42,
			"componentType":5126,
			"count":74,
			"max":[
				0.6930044889450073,
				0.4592612385749817,
				0.33723223209381104
			],
			"min":[
				-0.43253058195114136,
				0.09380316734313965,
				-0.6389392018318176
			],
			"type":"VEC3"
		},
		{
			"bufferView":43,
			"componentType":5126,
			"count":74,
			"type":"VEC3"
		},
		{
			"bufferView":44,
			"componentType":5126,
			"count":74,
			"type":"VEC2"
		},
		{
			"bufferView":45,
			"componentType":5123,
			"count":384,
			"type":"SCALAR"
		},
		{
			"bufferView":46,
			"componentType":5126,
			"count":32,
			"max":[
				0,
				1.6296157836914062,
				3.2743992805480957
			],
			"min":[
				-0.03585774451494217,
				0.36727169156074524,
				1.518951177597046
			],
			"type":"VEC3"
		},
		{
			"bufferView":47,
			"componentType":5126,
			"count":32,
			"type":"VEC3"
		},
		{
			"bufferView":48,
			"componentType":5126,
			"count":32,
			"type":"VEC2"
		},
		{
			"bufferView":49,
			"componentType":5123,
			"count":126,
			"type":"SCALAR"
		},
		{
			"bufferView":50,
			"componentType":5126,
			"count":160,
			"max":[
				1.5935407876968384,
				4.087264060974121,
				-0.3190675675868988
			],
			"min":[
				-1.5826911926269531,
				-6.6455397605896,
				-3.4371092319488525
			],
			"type":"VEC3"
		},
		{
			"bufferView":51,
			"componentType":5126,
			"count":160,
			"type":"VEC3"
		},
		{
			"bufferView":52,
			"componentType":5126,
			"count":160,
			"type":"VEC2"
		},
		{
			"bufferView":53,
			"componentType":5123,
			"count":285,
			"type":"SCALAR"
		},
		{
			"bufferView":54,
			"componentType":5126,
			"count":1944,
			"max":[
				0.23115673661231995,
				4.485640048980713,
				2.392768383026123
			],
			"min":[
				-0.23115673661231995,
				1.2079757452011108,
				-5.413273334503174
			],
			"type":"VEC3"
		},
		{
			"bufferView":55,
			"componentType":5126,
			"count":1944,
			"type":"VEC3"
		},
		{
			"bufferView":56,
			"componentType":5126,
			"count":1944,
			"type":"VEC2"
		},
		{
			"bufferView":57,
			"componentType":5123,
			"count":1944,
			"normalized":true,
			"type":"VEC4"
		},
		{
			"bufferView":58,
			"componentType":5123,
			"count":1956,
			"type":"SCALAR"
		},
		{
			"bufferView":59,
			"componentType":5126,
			"count":208,
			"max":[
				1.0000107288360596,
				27.881237030029297,
				49.24655532836914
			],
			"min":[
				-1,
				-1,
				-1
			],
			"type":"VEC3"
		},
		{
			"bufferView":60,
			"componentType":5126,
			"count":208,
			"type":"VEC3"
		},
		{
			"bufferView":61,
			"componentType":5126,
			"count":208,
			"type":"VEC2"
		},
		{
			"bufferView":62,
			"componentType":5123,
			"count":324,
			"type":"SCALAR"
		},
		{
			"bufferView":63,
			"componentType":5126,
			"count":281,
			"max":[
				3.1601719856262207,
				7.743091106414795,
				-0.08668699860572815
			],
			"min":[
				-3.404568910598755,
				-6.907290935516357,
				-5.597081184387207
			],
			"type":"VEC3"
		},
		{
			"bufferView":64,
			"componentType":5126,
			"count":281,
			"type":"VEC3"
		},
		{
			"bufferView":65,
			"componentType":5126,
			"count":281,
			"type":"VEC2"
		},
		{
			"bufferView":66,
			"componentType":5126,
			"count":1474,
			"max":[
				1.5432769060134888,
				4.087214469909668,
				-0.31892070174217224
			],
			"min":[
				-1.5826911926269531,
				-6.852784156799316,
				-3.435659408569336
			],
			"type":"VEC3"
		},
		{
			"bufferView":67,
			"componentType":5126,
			"count":1474,
			"type":"VEC3"
		},
		{
			"bufferView":68,
			"componentType":5126,
			"count":1474,
			"type":"VEC2"
		},
		{
			"bufferView":69,
			"componentType":5123,
			"count":1474,
			"normalized":true,
			"type":"VEC4"
		},
		{
			"bufferView":70,
			"componentType":5123,
			"count":2802,
			"type":"SCALAR"
		},
		{
			"bufferView":71,
			"componentType":5126,
			"count":21,
			"max":[
				1.5189766883850098,
				4.102765083312988,
				-0.5806933045387268
			],
			"min":[
				0,
				2.4719629287719727,
				-1.5256950855255127
			],
			"type":"VEC3"
		},
		{
			"bufferView":72,
			"componentType":5126,
			"count":21,
			"type":"VEC3"
		},
		{
			"bufferView":73,
			"componentType":5126,
			"count":21,
			"type":"VEC2"
		},
		{
			"bufferView":74,
			"componentType":5123,
			"count":21,
			"type":"SCALAR"
		},
		{
			"bufferView":75,
			"componentType":5126,
			"count":175,
			"max":[
				1.351869821548462,
				0.07213082164525986,
				0.8556704521179199
			],
			"min":[
				-0.8901709318161011,
				-0.07084369659423828,
				-0.10250123590230942
			],
			"type":"VEC3"
		},
		{
			"bufferView":76,
			"componentType":5126,
			"count":175,
			"type":"VEC3"
		},
		{
			"bufferView":77,
			"componentType":5126,
			"count":175,
			"type":"VEC2"
		},
		{
			"bufferView":78,
			"componentType":5123,
			"count":864,
			"type":"SCALAR"
		},
		{
			"bufferView":79,
			"componentType":5126,
			"count":24,
			"max":[
				0.9440010786056519,
				0.958775520324707,
				0.9755738973617554
			],
			"min":[
				-0.9440011382102966,
				-1.4723113775253296,
				-0.8830208778381348
			],
			"type":"VEC3"
		},
		{
			"bufferView":80,
			"componentType":5126,
			"count":24,
			"type":"VEC3"
		},
		{
			"bufferView":81,
			"componentType":5126,
			"count":24,
			"type":"VEC2"
		},
		{
			"bufferView":82,
			"componentType":5123,
			"count":36,
			"type":"SCALAR"
		},
		{
			"bufferView":83,
			"componentType":5126,
			"count":21,
			"max":[
				1.3584684133529663,
				2.5509085655212402,
				-1.5795766115188599
			],
			"min":[
				0,
				0.7963079810142517,
				-2.5266289710998535
			],
			"type":"VEC3"
		},
		{
			"bufferView":84,
			"componentType":5126,
			"count":21,
			"type":"VEC3"
		},
		{
			"bufferView":85,
			"componentType":5126,
			"count":21,
			"type":"VEC2"
		},
		{
			"bufferView":86,
			"componentType":5123,
			"count":21,
			"type":"SCALAR"
		},
		{
			"bufferView":87,
			"componentType":5126,
			"count":1272,
			"max":[
				2.633692741394043,
				0.9573377966880798,
				1.8483150005340576
			],
			"min":[
				-0.14165575802326202,
				-0.5438069701194763,
				-2.4616777896881104
			],
			"type":"VEC3"
		},
		{
			"bufferView":88,
			"componentType":5126,
			"count":1272,
			"type":"VEC3"
		},
		{
			"bufferView":89,
			"componentType":5126,
			"count":1272,
			"type":"VEC2"
		},
		{
			"bufferView":90,
			"componentType":5123,
			"count":1272,
			"normalized":true,
			"type":"VEC4"
		},
		{
			"bufferView":91,
			"componentType":5123,
			"count":1272,
			"type":"SCALAR"
		},
		{
			"bufferView":92,
			"componentType":5126,
			"count":1954,
			"max":[
				2.026594400405884,
				4.243738174438477,
				2.5627501010894775
			],
			"min":[
				-0.10031209141016006,
				0.7739247679710388,
				-4.352989196777344
			],
			"type":"VEC3"
		},
		{
			"bufferView":93,
			"componentType":5126,
			"count":1954,
			"type":"VEC3"
		},
		{
			"bufferView":94,
			"componentType":5126,
			"count":1954,
			"type":"VEC2"
		},
		{
			"bufferView":95,
			"componentType":5123,
			"count":1954,
			"normalized":true,
			"type":"VEC4"
		},
		{
			"bufferView":96,
			"componentType":5123,
			"count":1956,
			"type":"SCALAR"
		},
		{
			"bufferView":97,
			"componentType":5126,
			"count":24,
			"max":[
				0.9440010786056519,
				0.958775520324707,
				0.9755738973617554
			],
			"min":[
				-0.9440011382102966,
				-1.4723113775253296,
				-0.8830208778381348
			],
			"type":"VEC3"
		},
		{
			"bufferView":98,
			"componentType":5126,
			"count":24,
			"type":"VEC3"
		},
		{
			"bufferView":99,
			"componentType":5126,
			"count":24,
			"type":"VEC2"
		},
		{
			"bufferView":100,
			"componentType":5126,
			"count":224,
			"max":[
				1.3867146968841553,
				2.5775485038757324,
				-1.5203510522842407
			],
			"min":[
				-1.3953866958618164,
				0.7767137885093689,
				-2.5228354930877686
			],
			"type":"VEC3"
		},
		{
			"bufferView":101,
			"componentType":5126,
			"count":224,
			"type":"VEC3"
		},
		{
			"bufferView":102,
			"componentType":5126,
			"count":224,
			"type":"VEC2"
		},
		{
			"bufferView":103,
			"componentType":5123,
			"count":336,
			"type":"SCALAR"
		},
		{
			"bufferView":104,
			"componentType":5126,
			"count":995,
			"max":[
				1.4776629209518433,
				1.274529218673706,
				2.7161290645599365
			],
			"min":[
				-0.4492119252681732,
				-2.040814161300659,
				-3.287031888961792
			],
			"type":"VEC3"
		},
		{
			"bufferView":105,
			"componentType":5126,
			"count":995,
			"type":"VEC3"
		},
		{
			"bufferView":106,
			"componentType":5126,
			"count":995,
			"type":"VEC2"
		},
		{
			"bufferView":107,
			"componentType":5123,
			"count":995,
			"normalized":true,
			"type":"VEC4"
		},
		{
			"bufferView":108,
			"componentType":5123,
			"count":1221,
			"type":"SCALAR"
		},
		{
			"bufferView":109,
			"componentType":5126,
			"count":758,
			"max":[
				0.2730271518230438,
				0.9122496843338013,
				2.4543731212615967
			],
			"min":[
				-0.2730271518230438,
				-1.34878671169281,
				-0.8768081665039062
			],
			"type":"VEC3"
		},
		{
			"bufferView":110,
			"componentType":5126,
			"count":758,
			"type":"VEC3"
		},
		{
			"bufferView":111,
			"componentType":5126,
			"count":758,
			"type":"VEC2"
		},
		{
			"bufferView":112,
			"componentType":5123,
			"count":758,
			"normalized":true,
			"type":"VEC4"
		},
		{
			"bufferView":113,
			"componentType":5123,
			"count":1134,
			"type":"SCALAR"
		},
		{
			"bufferView":114,
			"componentType":5126,
			"count":584,
			"max":[
				0.4408670663833618,
				1.4548999071121216,
				9.992762565612793
			],
			"min":[
				-2.68510103225708,
				-1.6618386507034302,
				-1.2194883823394775
			],
			"type":"VEC3"
		},
		{
			"bufferView":115,
			"componentType":5126,
			"count":584,
			"type":"VEC3"
		},
		{
			"bufferView":116,
			"componentType":5126,
			"count":584,
			"type":"VEC2"
		},
		{
			"bufferView":117,
			"componentType":5123,
			"count":584,
			"normalized":true,
			"type":"VEC4"
		},
		{
			"bufferView":118,
			"componentType":5123,
			"count":834,
			"type":"SCALAR"
		},
		{
			"bufferView":119,
			"componentType":5126,
			"count":684,
			"max":[
				3.016449213027954,
				6.021453380584717,
				4.975918292999268
			],
			"min":[
				-4.6975202560424805,
				2.7751476764678955,
				0.5630160570144653
			],
			"type":"VEC3"
		},
		{
			"bufferView":120,
			"componentType":5126,
			"count":684,
			"type":"VEC3"
		},
		{
			"bufferView":121,
			"componentType":5126,
			"count":684,
			"type":"VEC2"
		},
		{
			"bufferView":122,
			"componentType":5123,
			"count":684,
			"normalized":true,
			"type":"VEC4"
		},
		{
			"bufferView":123,
			"componentType":5123,
			"count":1020,
			"type":"SCALAR"
		},
		{
			"bufferView":124,
			"componentType":5126,
			"count":1500,
			"max":[
				2.0265941619873047,
				6.06185245513916,
				3.2995643615722656
			],
			"min":[
				-0.1003119945526123,
				2.712005615234375,
				-3.790200710296631
			],
			"type":"VEC3"
		},
		{
			"bufferView":125,
			"componentType":5126,
			"count":1500,
			"type":"VEC3"
		},
		{
			"bufferView":126,
			"componentType":5126,
			"count":1500,
			"type":"VEC2"
		},
		{
			"bufferView":127,
			"componentType":5123,
			"count":1500,
			"normalized":true,
			"type":"VEC4"
		},
		{
			"bufferView":128,
			"componentType":5123,
			"count":1944,
			"type":"SCALAR"
		},
		{
			"bufferView":129,
			"componentType":5126,
			"count":224,
			"max":[
				1.2923399209976196,
				1.618363857269287,
				-1.9154298305511475
			],
			"min":[
				-1.3650256395339966,
				0.8246596455574036,
				-3.2667202949523926
			],
			"type":"VEC3"
		},
		{
			"bufferView":130,
			"componentType":5126,
			"count":224,
			"type":"VEC3"
		},
		{
			"bufferView":131,
			"componentType":5126,
			"count":224,
			"type":"VEC2"
		},
		{
			"bufferView":132,
			"componentType":5123,
			"count":336,
			"type":"SCALAR"
		},
		{
			"bufferView":133,
			"componentType":5126,
			"count":208,
			"max":[
				1.0000107288360596,
				27.881237030029297,
				49.24655532836914
			],
			"min":[
				-1,
				-1,
				-1
			],
			"type":"VEC3"
		},
		{
			"bufferView":134,
			"componentType":5126,
			"count":208,
			"type":"VEC3"
		},
		{
			"bufferView":135,
			"componentType":5126,
			"count":208,
			"type":"VEC2"
		},
		{
			"bufferView":136,
			"componentType":5126,
			"count":24,
			"max":[
				0.9440010786056519,
				0.958775520324707,
				0.9755738973617554
			],
			"min":[
				-0.9440011382102966,
				-1.4723113775253296,
				-0.8830208778381348
			],
			"type":"VEC3"
		},
		{
			"bufferView":137,
			"componentType":5126,
			"count":24,
			"type":"VEC3"
		},
		{
			"bufferView":138,
			"componentType":5126,
			"count":24,
			"type":"VEC2"
		},
		{
			"bufferView":139,
			"componentType":5126,
			"count":224,
			"max":[
				1.3867146968841553,
				2.5775485038757324,
				-1.5203510522842407
			],
			"min":[
				-1.3953866958618164,
				0.7767137885093689,
				-2.5228354930877686
			],
			"type":"VEC3"
		},
		{
			"bufferView":140,
			"componentType":5126,
			"count":224,
			"type":"VEC3"
		},
		{
			"bufferView":141,
			"componentType":5126,
			"count":224,
			"type":"VEC2"
		},
		{
			"bufferView":142,
			"componentType":5126,
			"count":319,
			"max":[
				0.8342893719673157,
				2.0880305767059326,
				9.992762565612793
			],
			"min":[
				-2.8187506198883057,
				-1.6618386507034302,
				-0.945595383644104
			],
			"type":"VEC3"
		},
		{
			"bufferView":143,
			"componentType":5126,
			"count":319,
			"type":"VEC3"
		},
		{
			"bufferView":144,
			"componentType":5126,
			"count":319,
			"type":"VEC2"
		},
		{
			"bufferView":145,
			"componentType":5123,
			"count":319,
			"normalized":true,
			"type":"VEC4"
		},
		{
			"bufferView":146,
			"componentType":5123,
			"count":477,
			"type":"SCALAR"
		},
		{
			"bufferView":147,
			"componentType":5126,
			"count":224,
			"max":[
				1.2923399209976196,
				1.618363857269287,
				-1.9154298305511475
			],
			"min":[
				-1.3650256395339966,
				0.8246596455574036,
				-3.2667202949523926
			],
			"type":"VEC3"
		},
		{
			"bufferView":148,
			"componentType":5126,
			"count":224,
			"type":"VEC3"
		},
		{
			"bufferView":149,
			"componentType":5126,
			"count":224,
			"type":"VEC2"
		},
		{
			"bufferView":150,
			"componentType":5126,
			"count":432,
			"max":[
				0.7039476037025452,
				6.688360691070557,
				0.09896163642406464
			],
			"min":[
				-0.7050256133079529,
				-0.6815767288208008,
				-14.808079719543457
			],
			"type":"VEC3"
		},
		{
			"bufferView":151,
			"componentType":5126,
			"count":432,
			"type":"VEC3"
		},
		{
			"bufferView":152,
			"componentType":5126,
			"count":432,
			"type":"VEC2"
		},
		{
			"bufferView":153,
			"componentType":5123,
			"count":468,
			"type":"SCALAR"
		},
		{
			"bufferView":154,
			"componentType":5126,
			"count":804,
			"max":[
				2.249990224838257,
				2.796508312225342,
				0.2174520492553711
			],
			"min":[
				-1.9393686056137085,
				0.01843063160777092,
				-10.803993225097656
			],
			"type":"VEC3"
		},
		{
			"bufferView":155,
			"componentType":5126,
			"count":804,
			"type":"VEC3"
		},
		{
			"bufferView":156,
			"componentType":5126,
			"count":804,
			"type":"VEC2"
		},
		{
			"bufferView":157,
			"componentType":5123,
			"count":804,
			"normalized":true,
			"type":"VEC4"
		},
		{
			"bufferView":158,
			"componentType":5123,
			"count":921,
			"type":"SCALAR"
		},
		{
			"bufferView":159,
			"componentType":5126,
			"count":805,
			"max":[
				1.1197829246520996,
				1.8061329126358032,
				10.080683708190918
			],
			"min":[
				-3.069575548171997,
				-1.6731590032577515,
				-0.9824106097221375
			],
			"type":"VEC3"
		},
		{
			"bufferView":160,
			"componentType":5126,
			"count":805,
			"type":"VEC3"
		},
		{
			"bufferView":161,
			"componentType":5126,
			"count":805,
			"type":"VEC2"
		},
		{
			"bufferView":162,
			"componentType":5123,
			"count":805,
			"normalized":true,
			"type":"VEC4"
		},
		{
			"bufferView":163,
			"componentType":5123,
			"count":921,
			"type":"SCALAR"
		},
		{
			"bufferView":164,
			"componentType":5126,
			"count":599,
			"max":[
				2.6419146060943604,
				4.080894470214844,
				0.21424312889575958
			],
			"min":[
				-1.935624122619629,
				-0.004651069641113281,
				-11.111242294311523
			],
			"type":"VEC3"
		},
		{
			"bufferView":165,
			"componentType":5126,
			"count":599,
			"type":"VEC3"
		},
		{
			"bufferView":166,
			"componentType":5126,
			"count":599,
			"type":"VEC2"
		},
		{
			"bufferView":167,
			"componentType":5123,
			"count":599,
			"normalized":true,
			"type":"VEC4"
		},
		{
			"bufferView":168,
			"componentType":5123,
			"count":699,
			"type":"SCALAR"
		},
		{
			"bufferView":169,
			"componentType":5126,
			"count":4944,
			"max":[
				0.7122749090194702,
				3.0502984523773193,
				0.28161388635635376
			],
			"min":[
				-0.7122012972831726,
				-0.0005541160353459418,
				-0.275922954082489
			],
			"type":"VEC3"
		},
		{
			"bufferView":170,
			"componentType":5126,
			"count":4944,
			"type":"VEC3"
		},
		{
			"bufferView":171,
			"componentType":5126,
			"count":16,
			"max":[
				1.6803981065750122,
				3.349367034388706e-06,
				7.515328407287598
			],
			"min":[
				-39.44535827636719,
				-1.0626941815417013e-07,
				-14.582518577575684
			],
			"type":"VEC3"
		},
		{
			"bufferView":172,
			"componentType":5126,
			"count":16,
			"type":"VEC3"
		},
		{
			"bufferView":173,
			"componentType":5126,
			"count":16,
			"type":"VEC2"
		},
		{
			"bufferView":174,
			"componentType":5123,
			"count":42,
			"type":"SCALAR"
		}
	],
	"bufferViews":[
		{
			"buffer":0,
			"byteLength":59328,
			"byteOffset":0,
			"target":34962
		},
		{
			"buffer":0,
			"byteLength":59328,
			"byteOffset":59328,
			"target":34962
		},
		{
			"buffer":0,
			"byteLength":59304,
			"byteOffset":118656,
			"target":34963
		},
		{
			"buffer":0,
			"byteLength":48,
			"byteOffset":177960,
			"target":34962
		},
		{
			"buffer":0,
			"byteLength":48,
			"byteOffset":178008,
			"target":34962
		},
		{
			"buffer":0,
			"byteLength":32,
			"byteOffset":178056,
			"target":34962
		},
		{
			"buffer":0,
			"byteLength":12,
			"byteOffset":178088,
			"target":34963
		},
		{
			"buffer":0,
			"byteLength":48,
			"byteOffset":178100,
			"target":34962
		},
		{
			"buffer":0,
			"byteLength":48,
			"byteOffset":178148,
			"target":34962
		},
		{
			"buffer":0,
			"byteLength":32,
			"byteOffset":178196,
			"target":34962
		},
		{
			"buffer":0,
			"byteLength":288,
			"byteOffset":178228,
			"target":34962
		},
		{
			"buffer":0,
			"byteLength":288,
			"byteOffset":178516,
			"target":34962
		},
		{
			"buffer":0,
			"byteLength":192,
			"byteOffset":178804,
			"target":34962
		},
		{
			"buffer":0,
			"byteLength":72,
			"byteOffset":178996,
			"target":34963
		},
		{
			"buffer":0,
			"byteLength":252,
			"byteOffset":179068,
			"target":34962
		},
		{
			"buffer":0,
			"byteLength":252,
			"byteOffset":179320,
			"target":34962
		},
		{
			"buffer":0,
			"byteLength":168,
			"byteOffset":179572,
			"target":34962
		},
		{
			"buffer":0,
			"byteLength":42,
			"byteOffset":179740,
			"target":34963
		},
		{
			"buffer":0,
			"byteLength":3372,
			"byteOffset":179784,
			"target":34962
		},
		{
			"buffer":0,
			"byteLength":3372,
			"byteOffset":183156,
			"target":34962
		},
		{
			"buffer":0,
			"byteLength":2248,
			"byteOffset":186528,
			"target":34962
		},
		{
			"buffer":0,
			"byteLength":606,
			"byteOffset":188776,
			"target":34963
		},
		{
			"buffer":0,
			"byteLength":1392,
			"byteOffset":189384,
			"target":34962
		},
		{
			"buffer":0,
			"byteLength":1392,
			"byteOffset":190776,
			"target":34962
		},
		{
			"buffer":0,
			"byteLength":928,
			"byteOffset":192168,
			"target":34962
		},
		{
			"buffer":0,
			"byteLength":360,
			"byteOffset":193096,
			"target":34963
		},
		{
			"buffer":0,
			"byteLength":168,
			"byteOffset":193456,
			"target":34962
		},
		{
			"buffer":0,
			"byteLength":168,
			"byteOffset":193624,
			"target":34962
		},
		{
			"buffer":0,
			"byteLength":112,
			"byteOffset":193792,
			"target":34962
		},
		{
			"buffer":0,
			"byteLength":48,
			"byteOffset":193904,
			"target":34963
		},
		{
			"buffer":0,
			"byteLength":360,
			"byteOffset":193952,
			"target":34962
		},
		{
			"buffer":0,
			"byteLength":360,
			"byteOffset":194312,
			"target":34962
		},
		{
			"buffer":0,
			"byteLength":240,
			"byteOffset":194672,
			"target":34962
		},
		{
			"buffer":0,
			"byteLength":60,
			"byteOffset":194912,
			"target":34963
		},
		{
			"buffer":0,
			"byteLength":84,
			"byteOffset":194972,
			"target":34962
		},
		{
			"buffer":0,
			"byteLength":84,
			"byteOffset":195056,
			"target":34962
		},
		{
			"buffer":0,
			"byteLength":56,
			"byteOffset":195140,
			"target":34962
		},
		{
			"buffer":0,
			"byteLength":18,
			"byteOffset":195196,
			"target":34963
		},
		{
			"buffer":0,
			"byteLength":180,
			"byteOffset":195216,
			"target":34962
		},
		{
			"buffer":0,
			"byteLength":180,
			"byteOffset":195396,
			"target":34962
		},
		{
			"buffer":0,
			"byteLength":120,
			"byteOffset":195576,
			"target":34962
		},
		{
			"buffer":0,
			"byteLength":30,
			"byteOffset":195696,
			"target":34963
		},
		{
			"buffer":0,
			"byteLength":888,
			"byteOffset":195728,
			"target":34962
		},
		{
			"buffer":0,
			"byteLength":888,
			"byteOffset":196616,
			"target":34962
		},
		{
			"buffer":0,
			"byteLength":592,
			"byteOffset":197504,
			"target":34962
		},
		{
			"buffer":0,
			"byteLength":768,
			"byteOffset":198096,
			"target":34963
		},
		{
			"buffer":0,
			"byteLength":384,
			"byteOffset":198864,
			"target":34962
		},
		{
			"buffer":0,
			"byteLength":384,
			"byteOffset":199248,
			"target":34962
		},
		{
			"buffer":0,
			"byteLength":256,
			"byteOffset":199632,
			"target":34962
		},
		{
			"buffer":0,
			"byteLength":252,
			"byteOffset":199888,
			"target":34963
		},
		{
			"buffer":0,
			"byteLength":1920,
			"byteOffset":200140,
			"target":34962
		},
		{
			"buffer":0,
			"byteLength":1920,
			"byteOffset":202060,
			"target":34962
		},
		{
			"buffer":0,
			"byteLength":1280,
			"byteOffset":203980,
			"target":34962
		},
		{
			"buffer":0,
			"byteLength":570,
			"byteOffset":205260,
			"target":34963
		},
		{
			"buffer":0,
			"byteLength":23328,
			"byteOffset":205832,
			"target":34962
		},
		{
			"buffer":0,
			"byteLength":23328,
			"byteOffset":229160,
			"target":34962
		},
		{
			"buffer":0,
			"byteLength":15552,
			"byteOffset":252488,
			"target":34962
		},
		{
			"buffer":0,
			"byteLength":15552,
			"byteOffset":268040,
			"target":34962
		},
		{
			"buffer":0,
			"byteLength":3912,
			"byteOffset":283592,
			"target":34963
		},
		{
			"buffer":0,
			"byteLength":2496,
			"byteOffset":287504,
			"target":34962
		},
		{
			"buffer":0,
			"byteLength":2496,
			"byteOffset":290000,
			"target":34962
		},
		{
			"buffer":0,
			"byteLength":1664,
			"byteOffset":292496,
			"target":34962
		},
		{
			"buffer":0,
			"byteLength":648,
			"byteOffset":294160,
			"target":34963
		},
		{
			"buffer":0,
			"byteLength":3372,
			"byteOffset":294808,
			"target":34962
		},
		{
			"buffer":0,
			"byteLength":3372,
			"byteOffset":298180,
			"target":34962
		},
		{
			"buffer":0,
			"byteLength":2248,
			"byteOffset":301552,
			"target":34962
		},
		{
			"buffer":0,
			"byteLength":17688,
			"byteOffset":303800,
			"target":34962
		},
		{
			"buffer":0,
			"byteLength":17688,
			"byteOffset":321488,
			"target":34962
		},
		{
			"buffer":0,
			"byteLength":11792,
			"byteOffset":339176,
			"target":34962
		},
		{
			"buffer":0,
			"byteLength":11792,
			"byteOffset":350968,
			"target":34962
		},
		{
			"buffer":0,
			"byteLength":5604,
			"byteOffset":362760,
			"target":34963
		},
		{
			"buffer":0,
			"byteLength":252,
			"byteOffset":368364,
			"target":34962
		},
		{
			"buffer":0,
			"byteLength":252,
			"byteOffset":368616,
			"target":34962
		},
		{
			"buffer":0,
			"byteLength":168,
			"byteOffset":368868,
			"target":34962
		},
		{
			"buffer":0,
			"byteLength":42,
			"byteOffset":369036,
			"target":34963
		},
		{
			"buffer":0,
			"byteLength":2100,
			"byteOffset":369080,
			"target":34962
		},
		{
			"buffer":0,
			"byteLength":2100,
			"byteOffset":371180,
			"target":34962
		},
		{
			"buffer":0,
			"byteLength":1400,
			"byteOffset":373280,
			"target":34962
		},
		{
			"buffer":0,
			"byteLength":1728,
			"byteOffset":374680,
			"target":34963
		},
		{
			"buffer":0,
			"byteLength":288,
			"byteOffset":376408,
			"target":34962
		},
		{
			"buffer":0,
			"byteLength":288,
			"byteOffset":376696,
			"target":34962
		},
		{
			"buffer":0,
			"byteLength":192,
			"byteOffset":376984,
			"target":34962
		},
		{
			"buffer":0,
			"byteLength":72,
			"byteOffset":377176,
			"target":34963
		},
		{
			"buffer":0,
			"byteLength":252,
			"byteOffset":377248,
			"target":34962
		},
		{
			"buffer":0,
			"byteLength":252,
			"byteOffset":377500,
			"target":34962
		},
		{
			"buffer":0,
			"byteLength":168,
			"byteOffset":377752,
			"target":34962
		},
		{
			"buffer":0,
			"byteLength":42,
			"byteOffset":377920,
			"target":34963
		},
		{
			"buffer":0,
			"byteLength":15264,
			"byteOffset":377964,
			"target":34962
		},
		{
			"buffer":0,
			"byteLength":15264,
			"byteOffset":393228,
			"target":34962
		},
		{
			"buffer":0,
			"byteLength":10176,
			"byteOffset":408492,
			"target":34962
		},
		{
			"buffer":0,
			"byteLength":10176,
			"byteOffset":418668,
			"target":34962
		},
		{
			"buffer":0,
			"byteLength":2544,
			"byteOffset":428844,
			"target":34963
		},
		{
			"buffer":0,
			"byteLength":23448,
			"byteOffset":431388,
			"target":34962
		},
		{
			"buffer":0,
			"byteLength":23448,
			"byteOffset":454836,
			"target":34962
		},
		{
			"buffer":0,
			"byteLength":15632,
			"byteOffset":478284,
			"target":34962
		},
		{
			"buffer":0,
			"byteLength":15632,
			"byteOffset":493916,
			"target":34962
		},
		{
			"buffer":0,
			"byteLength":3912,
			"byteOffset":509548,
			"target":34963
		},
		{
			"buffer":0,
			"byteLength":288,
			"byteOffset":513460,
			"target":34962
		},
		{
			"buffer":0,
			"byteLength":288,
			"byteOffset":513748,
			"target":34962
		},
		{
			"buffer":0,
			"byteLength":192,
			"byteOffset":514036,
			"target":34962
		},
		{
			"buffer":0,
			"byteLength":2688,
			"byteOffset":514228,
			"target":34962
		},
		{
			"buffer":0,
			"byteLength":2688,
			"byteOffset":516916,
			"target":34962
		},
		{
			"buffer":0,
			"byteLength":1792,
			"byteOffset":519604,
			"target":34962
		},
		{
			"buffer":0,
			"byteLength":672,
			"byteOffset":521396,
			"target":34963
		},
		{
			"buffer":0,
			"byteLength":11940,
			"byteOffset":522068,
			"target":34962
		},
		{
			"buffer":0,
			"byteLength":11940,
			"byteOffset":534008,
			"target":34962
		},
		{
			"buffer":0,
			"byteLength":7960,
			"byteOffset":545948,
			"target":34962
		},
		{
			"buffer":0,
			"byteLength":7960,
			"byteOffset":553908,
			"target":34962
		},
		{
			"buffer":0,
			"byteLength":2442,
			"byteOffset":561868,
			"target":34963
		},
		{
			"buffer":0,
			"byteLength":9096,
			"byteOffset":564312,
			"target":34962
		},
		{
			"buffer":0,
			"byteLength":9096,
			"byteOffset":573408,
			"target":34962
		},
		{
			"buffer":0,
			"byteLength":6064,
			"byteOffset":582504,
			"target":34962
		},
		{
			"buffer":0,
			"byteLength":6064,
			"byteOffset":588568,
			"target":34962
		},
		{
			"buffer":0,
			"byteLength":2268,
			"byteOffset":594632,
			"target":34963
		},
		{
			"buffer":0,
			"byteLength":7008,
			"byteOffset":596900,
			"target":34962
		},
		{
			"buffer":0,
			"byteLength":7008,
			"byteOffset":603908,
			"target":34962
		},
		{
			"buffer":0,
			"byteLength":4672,
			"byteOffset":610916,
			"target":34962
		},
		{
			"buffer":0,
			"byteLength":4672,
			"byteOffset":615588,
			"target":34962
		},
		{
			"buffer":0,
			"byteLength":1668,
			"byteOffset":620260,
			"target":34963
		},
		{
			"buffer":0,
			"byteLength":8208,
			"byteOffset":621928,
			"target":34962
		},
		{
			"buffer":0,
			"byteLength":8208,
			"byteOffset":630136,
			"target":34962
		},
		{
			"buffer":0,
			"byteLength":5472,
			"byteOffset":638344,
			"target":34962
		},
		{
			"buffer":0,
			"byteLength":5472,
			"byteOffset":643816,
			"target":34962
		},
		{
			"buffer":0,
			"byteLength":2040,
			"byteOffset":649288,
			"target":34963
		},
		{
			"buffer":0,
			"byteLength":18000,
			"byteOffset":651328,
			"target":34962
		},
		{
			"buffer":0,
			"byteLength":18000,
			"byteOffset":669328,
			"target":34962
		},
		{
			"buffer":0,
			"byteLength":12000,
			"byteOffset":687328,
			"target":34962
		},
		{
			"buffer":0,
			"byteLength":12000,
			"byteOffset":699328,
			"target":34962
		},
		{
			"buffer":0,
			"byteLength":3888,
			"byteOffset":711328,
			"target":34963
		},
		{
			"buffer":0,
			"byteLength":2688,
			"byteOffset":715216,
			"target":34962
		},
		{
			"buffer":0,
			"byteLength":2688,
			"byteOffset":717904,
			"target":34962
		},
		{
			"buffer":0,
			"byteLength":1792,
			"byteOffset":720592,
			"target":34962
		},
		{
			"buffer":0,
			"byteLength":672,
			"byteOffset":722384,
			"target":34963
		},
		{
			"buffer":0,
			"byteLength":2496,
			"byteOffset":723056,
			"target":34962
		},
		{
			"buffer":0,
			"byteLength":2496,
			"byteOffset":725552,
			"target":34962
		},
		{
			"buffer":0,
			"byteLength":1664,
			"byteOffset":728048,
			"target":34962
		},
		{
			"buffer":0,
			"byteLength":288,
			"byteOffset":729712,
			"target":34962
		},
		{
			"buffer":0,
			"byteLength":288,
			"byteOffset":730000,
			"target":34962
		},
		{
			"buffer":0,
			"byteLength":192,
			"byteOffset":730288,
			"target":34962
		},
		{
			"buffer":0,
			"byteLength":2688,
			"byteOffset":730480,
			"target":34962
		},
		{
			"buffer":0,
			"byteLength":2688,
			"byteOffset":733168,
			"target":34962
		},
		{
			"buffer":0,
			"byteLength":1792,
			"byteOffset":735856,
			"target":34962
		},
		{
			"buffer":0,
			"byteLength":3828,
			"byteOffset":737648,
			"target":34962
		},
		{
			"buffer":0,
			"byteLength":3828,
			"byteOffset":741476,
			"target":34962
		},
		{
			"buffer":0,
			"byteLength":2552,
			"byteOffset":745304,
			"target":34962
		},
		{
			"buffer":0,
			"byteLength":2552,
			"byteOffset":747856,
			"target":34962
		},
		{
			"buffer":0,
			"byteLength":954,
			"byteOffset":750408,
			"target":34963
		},
		{
			"buffer":0,
			"byteLength":2688,
			"byteOffset":751364,
			"target":34962
		},
		{
			"buffer":0,
			"byteLength":2688,
			"byteOffset":754052,
			"target":34962
		},
		{
			"buffer":0,
			"byteLength":1792,
			"byteOffset":756740,
			"target":34962
		},
		{
			"buffer":0,
			"byteLength":5184,
			"byteOffset":758532,
			"target":34962
		},
		{
			"buffer":0,
			"byteLength":5184,
			"byteOffset":763716,
			"target":34962
		},
		{
			"buffer":0,
			"byteLength":3456,
			"byteOffset":768900,
			"target":34962
		},
		{
			"buffer":0,
			"byteLength":936,
			"byteOffset":772356,
			"target":34963
		},
		{
			"buffer":0,
			"byteLength":9648,
			"byteOffset":773292,
			"target":34962
		},
		{
			"buffer":0,
			"byteLength":9648,
			"byteOffset":782940,
			"target":34962
		},
		{
			"buffer":0,
			"byteLength":6432,
			"byteOffset":792588,
			"target":34962
		},
		{
			"buffer":0,
			"byteLength":6432,
			"byteOffset":799020,
			"target":34962
		},
		{
			"buffer":0,
			"byteLength":1842,
			"byteOffset":805452,
			"target":34963
		},
		{
			"buffer":0,
			"byteLength":9660,
			"byteOffset":807296,
			"target":34962
		},
		{
			"buffer":0,
			"byteLength":9660,
			"byteOffset":816956,
			"target":34962
		},
		{
			"buffer":0,
			"byteLength":6440,
			"byteOffset":826616,
			"target":34962
		},
		{
			"buffer":0,
			"byteLength":6440,
			"byteOffset":833056,
			"target":34962
		},
		{
			"buffer":0,
			"byteLength":1842,
			"byteOffset":839496,
			"target":34963
		},
		{
			"buffer":0,
			"byteLength":7188,
			"byteOffset":841340,
			"target":34962
		},
		{
			"buffer":0,
			"byteLength":7188,
			"byteOffset":848528,
			"target":34962
		},
		{
			"buffer":0,
			"byteLength":4792,
			"byteOffset":855716,
			"target":34962
		},
		{
			"buffer":0,
			"byteLength":4792,
			"byteOffset":860508,
			"target":34962
		},
		{
			"buffer":0,
			"byteLength":1398,
			"byteOffset":865300,
			"target":34963
		},
		{
			"buffer":0,
			"byteLength":59328,
			"byteOffset":866700,
			"target":34962
		},
		{
			"buffer":0,
			"byteLength":59328,
			"byteOffset":926028,
			"target":34962
		},
		{
			"buffer":0,
			"byteLength":192,
			"byteOffset":985356,
			"target":34962
		},
		{
			"buffer":0,
			"byteLength":192,
			"byteOffset":985548,
			"target":34962
		},
		{
			"buffer":0,
			"byteLength":128,
			"byteOffset":985740,
			"target":34962
		},
		{
			"buffer":0,
			"byteLength":84,
			"byteOffset":985868,
			"target":34963
		}
	],
	"buffers":[
		{
			"byteLength":985952,
			"uri":"pez_abisal.bin"
		}
	]
}
